
<svg width="400" height="400" viewBox="0 0 400 400" xmlns="http://www.w3.org/2000/svg">
  <style>
    .line {
      stroke: #33C3F0;
      stroke-width: 1;
      stroke-opacity: 0.2;
    }
    .dot {
      fill: #33C3F0;
      fill-opacity: 0.3;
    }
    .circle {
      stroke: #33C3F0;
      stroke-width: 1;
      fill: none;
      stroke-opacity: 0.15;
    }
  </style>

  <!-- Horizontal Lines -->
  <line x1="0" y1="50" x2="400" y2="50" class="line" />
  <line x1="0" y1="150" x2="400" y2="150" class="line" />
  <line x1="0" y1="250" x2="400" y2="250" class="line" />
  <line x1="0" y1="350" x2="400" y2="350" class="line" />

  <!-- Vertical Lines -->
  <line x1="50" y1="0" x2="50" y2="400" class="line" />
  <line x1="150" y1="0" x2="150" y2="400" class="line" />
  <line x1="250" y1="0" x2="250" y2="400" class="line" />
  <line x1="350" y1="0" x2="350" y2="400" class="line" />

  <!-- Dots -->
  <circle cx="50" cy="50" r="3" class="dot" />
  <circle cx="50" cy="150" r="3" class="dot" />
  <circle cx="50" cy="250" r="3" class="dot" />
  <circle cx="50" cy="350" r="3" class="dot" />

  <circle cx="150" cy="50" r="3" class="dot" />
  <circle cx="150" cy="150" r="3" class="dot" />
  <circle cx="150" cy="250" r="3" class="dot" />
  <circle cx="150" cy="350" r="3" class="dot" />

  <circle cx="250" cy="50" r="3" class="dot" />
  <circle cx="250" cy="150" r="3" class="dot" />
  <circle cx="250" cy="250" r="3" class="dot" />
  <circle cx="250" cy="350" r="3" class="dot" />

  <circle cx="350" cy="50" r="3" class="dot" />
  <circle cx="350" cy="150" r="3" class="dot" />
  <circle cx="350" cy="250" r="3" class="dot" />
  <circle cx="350" cy="350" r="3" class="dot" />

  <!-- Circular connections -->
  <circle cx="150" cy="150" r="15" class="circle" />
  <circle cx="250" cy="250" r="15" class="circle" />
  <circle cx="50" cy="350" r="15" class="circle" />
  <circle cx="350" cy="50" r="15" class="circle" />
  
  <!-- Diagonal lines -->
  <line x1="50" y1="50" x2="150" y2="150" class="line" />
  <line x1="150" y1="150" x2="250" y2="250" class="line" />
  <line x1="250" y1="250" x2="350" y2="350" class="line" />
  
  <line x1="350" y1="50" x2="250" y2="150" class="line" />
  <line x1="250" y1="150" x2="150" y2="250" class="line" />
  <line x1="150" y1="250" x2="50" y2="350" class="line" />
</svg>
